<?xml version="1.0"?>
<svg xmlns="http://www.w3.org/2000/svg" viewBox="0 0 64 64">
    <path d="M 13 4 C 11.346 4 10 5.346 10 7 L 10 57 C 10 58.654 11.346 60 13 60 L 53 60 C 54.654 60 56 58.654 56 57 L 56 17.65625 C 56 16.32025 55.479156 15.065094 54.535156 14.121094 L 45.878906 5.4648438 C 44.935906 4.5208438 43.68075 4 42.34375 4 L 13 4 z M 13 6 L 42 6 L 42 15 C 42 16.654 43.346 18 45 18 L 54 18 L 54 57 C 54 57.552 53.551 58 53 58 L 13 58 C 12.449 58 12 57.552 12 57 L 12 7 C 12 6.448 12.449 6 13 6 z M 44 6.4980469 C 44.165 6.6080469 44.321844 6.7359062 44.464844 6.8789062 L 53.121094 15.535156 C 53.263094 15.677156 53.389047 15.833 53.498047 16 L 45 16 C 44.449 16 44 15.552 44 15 L 44 6.4980469 z M 23 30 C 22.448 30 22 30.447 22 31 C 22 31.553 22.448 32 23 32 L 43 32 C 43.552 32 44 31.553 44 31 C 44 30.447 43.552 30 43 30 L 23 30 z M 23 34 C 22.448 34 22 34.447 22 35 C 22 35.553 22.448 36 23 36 L 43 36 C 43.552 36 44 35.553 44 35 C 44 34.447 43.552 34 43 34 L 23 34 z M 23 38 C 22.448 38 22 38.447 22 39 C 22 39.553 22.448 40 23 40 L 43 40 C 43.552 40 44 39.553 44 39 C 44 38.447 43.552 38 43 38 L 23 38 z M 23 42 C 22.448 42 22 42.447 22 43 C 22 43.553 22.448 44 23 44 L 33 44 C 33.552 44 34 43.553 34 43 C 34 42.447 33.552 42 33 42 L 23 42 z M 15 50 C 14.448 50 14 50.447 14 51 L 14 53 C 14 53.553 14.448 54 15 54 C 15.552 54 16 53.553 16 53 L 16 51 C 16 50.447 15.552 50 15 50 z M 20 50 C 19.448 50 19 50.447 19 51 L 19 53 C 19 53.553 19.448 54 20 54 C 20.552 54 21 53.553 21 53 L 21 51 C 21 50.447 20.552 50 20 50 z M 25 50 C 24.448 50 24 50.447 24 51 L 24 53 C 24 53.553 24.448 54 25 54 C 25.552 54 26 53.553 26 53 L 26 51 C 26 50.447 25.552 50 25 50 z M 30 50 C 29.448 50 29 50.447 29 51 L 29 53 C 29 53.553 29.448 54 30 54 C 30.552 54 31 53.553 31 53 L 31 51 C 31 50.447 30.552 50 30 50 z M 35 50 C 34.448 50 34 50.447 34 51 L 34 53 C 34 53.553 34.448 54 35 54 C 35.552 54 36 53.553 36 53 L 36 51 C 36 50.447 35.552 50 35 50 z M 40 50 C 39.448 50 39 50.447 39 51 L 39 53 C 39 53.553 39.448 54 40 54 C 40.552 54 41 53.553 41 53 L 41 51 C 41 50.447 40.552 50 40 50 z M 45 50 C 44.448 50 44 50.447 44 51 L 44 53 C 44 53.553 44.448 54 45 54 C 45.552 54 46 53.553 46 53 L 46 51 C 46 50.447 45.552 50 45 50 z M 50 50 C 49.448 50 49 50.447 49 51 L 49 53 C 49 53.553 49.448 54 50 54 C 50.552 54 51 53.553 51 53 L 51 51 C 51 50.447 50.552 50 50 50 z"/>
</svg>
